<?xml version="1.0" standalone="no"?><!DOCTYPE svg PUBLIC "-//W3C//DTD SVG 1.1//EN" "http://www.w3.org/Graphics/SVG/1.1/DTD/svg11.dtd"><svg t="1586844462402" class="icon" viewBox="0 0 1024 1024" version="1.1" xmlns="http://www.w3.org/2000/svg" p-id="4407" xmlns:xlink="http://www.w3.org/1999/xlink" width="300" height="300"><defs><style type="text/css"></style></defs><path d="M154.283837 460.620813q-4.534533-10.82437-4.534533-29.693879 0-11.409471 6.289836-28.011713t13.676737-25.744447q-0.585101-12.579673 4.31512-30.27898t12.872223-24.574245q0-79.427469 52.878509-164.852225t124.260839-119.726305q79.427469-37.739019 185.111349-37.739019 75.990001 0 151.980001 31.449182 28.011713 11.994572 51.415756 27.426612t40.591386 32.034283 31.449182 38.836083 23.989144 42.273552 18.576959 48.270838 14.554389 51.123205 12.579673 56.023427l0.585101 2.852368q31.449182 47.393186 31.449182 85.717306 0 7.972002-5.119634 22.818942t-5.119634 21.721877q0 0.585101 0.877652 1.974716t1.974716 2.852368 1.170202 1.974716q44.028855 65.165631 68.822513 122.578673t24.866795 119.141204q0 24.574245-11.11692 57.120491t-31.741733 32.546247q-5.119634 0-11.11692-4.31512t-10.82437-10.019856-10.82437-14.84694-9.142204-15.13949-7.679451-14.84694-5.119634-10.019856q-0.585101-0.585101-1.682166-0.585101l-2.852368 2.267267q-33.716449 87.984573-75.4049 127.405757 11.409471 11.409471 35.106064 22.014428t39.421184 23.696593 20.259124 37.153918q-1.170202 2.267267-2.267267 9.142204t-4.02257 10.312406q-36.568817 55.438326-172.531676 55.438326-30.27898 0-63.117777-5.119634t-56.023427-11.409471-59.680309-17.114206q-8.557103-2.852368-13.164774-4.02257-7.972002-2.267267-26.25641-2.559817t-22.818942-0.877652q-23.404043 25.744447-72.845082 37.153918t-96.249125 11.409471q-19.966574 0-39.421184-0.877652t-53.171059-5.119634-57.705592-11.702021-42.566102-22.818942-18.576959-36.568817q0-22.818942 5.704735-34.008999t23.404043-27.719163q6.289836-1.170202 23.111492-7.460039t28.304264-6.874938q2.267267 0 7.972002-1.170202 1.170202-1.170202 1.170202-2.267267l-1.170202-1.682166q-27.426612-6.289836-61.728162-60.26541t-41.688451-89.447325l-2.852368-1.682166q-2.267267 0-6.874938 11.409471-10.312406 23.404043-31.156632 42.566102t-44.248268 21.429326l-0.585101 0q-2.267267 0-3.437469-2.559817t-2.852368-3.144918q-13.164774-30.864081-13.164774-57.120491 0-157.099636 144.007999-266.294122z" p-id="4408" fill="#1296db"></path></svg>